<svg width="15" height="8" viewBox="0 0 15 8" fill="none" xmlns="http://www.w3.org/2000/svg">
  <circle cx="6.87402" cy="3" r="3"></circle>
  <circle r="1.5" transform="matrix(1 0 0 -1 5.37402 2.5)" fill="white"></circle>
  <path fill-rule="evenodd" clip-rule="evenodd" d="M1.26307 3.6586C3.05305 1.86046 4.98953 1.00002 6.93621 1C8.90305 0.999985 10.9658 1.87823 12.9841 3.71654C11.1941 5.51467 9.25764 6.37512 7.31095 6.37513C5.34412 6.37515 3.28135 5.4969 1.26307 3.6586ZM0.175037 3.69853L0 3.54295C2.06924 1.21499 4.44636 1.92557e-05 6.9362 2.28557e-10C9.41987 -1.91946e-05 11.9148 1.20899 14.2273 3.52147L14.0721 3.6766L14.2472 3.83219C12.1779 6.16015 9.8008 7.37512 7.31096 7.37513C4.8273 7.37515 2.33235 6.16614 0.0199006 3.85367L0.175037 3.69853Z"></path>
  <line x1="1.22361" y1="0.552786" x2="13.2236" y2="6.55279" stroke="#13B296"></line>
</svg>