<?xml version="1.0" standalone="no"?>
<!DOCTYPE svg PUBLIC "-//W3C//DTD SVG 20010904//EN"
 "http://www.w3.org/TR/2001/REC-SVG-20010904/DTD/svg10.dtd">
<svg version="1.0" xmlns="http://www.w3.org/2000/svg"
 width="260.000000pt" height="260.000000pt" viewBox="0 0 260.000000 260.000000"
 preserveAspectRatio="xMidYMid meet">
<metadata>
Created by potrace 1.11, written by Peter Selinger 2001-2013
</metadata>
<g transform="translate(0.000000,260.000000) scale(0.100000,-0.100000)"
fill="#000000" stroke="none">
<path d="M377 2585 c-176 -48 -316 -189 -362 -366 -12 -45 -15 -203 -15 -904
0 -574 3 -870 11 -910 34 -190 196 -354 387 -394 73 -15 1714 -15 1798 0 189
34 353 196 393 387 15 73 15 1714 0 1798 -35 192 -201 358 -394 393 -93 17
-1754 13 -1818 -4z m1829 -206 c72 -27 128 -80 163 -152 l30 -62 1 -857 c0
-836 0 -858 -20 -910 -27 -74 -79 -131 -148 -165 l-57 -28 -865 -2 c-855 -2
-866 -2 -919 19 -72 27 -142 97 -169 169 -20 53 -21 69 -21 906 -1 841 -1 852
20 908 21 57 83 132 129 155 73 38 83 39 955 39 817 0 852 -1 901 -20z"/>
<path d="M490 1800 l-66 -5 0 -492 0 -493 159 0 158 0 -1 123 c-1 67 -1 152
-1 188 l1 65 32 0 c29 -1 33 -5 45 -46 7 -25 15 -54 17 -65 14 -74 47 -149 83
-190 26 -29 72 -59 118 -77 51 -19 181 -23 232 -8 l39 12 0 117 0 118 -45 -2
c-102 -5 -131 19 -162 130 l-18 64 46 23 c52 26 109 85 129 135 23 53 24 141
3 197 -36 98 -149 175 -286 196 -75 12 -381 18 -483 10z m449 -230 c60 -24 64
-118 7 -155 -24 -16 -169 -36 -195 -27 -7 2 -11 40 -11 101 l0 98 84 -2 c47
-1 98 -8 115 -15z"/>
<path d="M1434 1801 c-2 -2 -4 -226 -4 -498 l0 -493 155 0 155 0 0 170 0 170
68 1 c91 1 122 5 195 30 154 51 237 146 245 279 12 195 -136 320 -397 336
-118 7 -411 11 -417 5z m449 -220 c47 -16 68 -41 74 -92 12 -87 -49 -139 -162
-139 l-55 0 0 118 c0 65 2 121 4 123 9 8 104 1 139 -10z"/>
</g>
</svg>
