<svg width="27" height="27" viewBox="0 0 27 27" fill="none" xmlns="http://www.w3.org/2000/svg">
<path fill-rule="evenodd" clip-rule="evenodd" d="M13.7886 7.81802C15.5459 9.57538 15.5459 12.4246 13.7886 14.182C12.0312 15.9393 9.18198 15.9393 7.42462 14.182C5.66726 12.4246 5.66726 9.57538 7.42462 7.81802C9.18198 6.06066 12.0312 6.06066 13.7886 7.81802ZM16.8645 15.1366C18.7938 12.2245 18.4756 8.26239 15.9099 5.6967C12.981 2.76777 8.23223 2.76777 5.3033 5.6967C2.37437 8.62563 2.37437 13.3744 5.3033 16.3033C7.86899 18.869 11.8311 19.1872 14.7432 17.2579L19.799 22.3137L21.9203 20.1924L16.8645 15.1366Z" fill="#CCCCCC"/>
</svg>
