<svg width="15" height="8" viewBox="0 0 15 8" fill="none" xmlns="http://www.w3.org/2000/svg">
  <circle cx="7" cy="3" r="3"></circle>
  <circle r="1.5" transform="matrix(1 0 0 -1 5.5 2.5)" fill="white"></circle>
  <path fill-rule="evenodd" clip-rule="evenodd" d="M1.38905 3.65859C3.17903 1.86046 5.1155 1.00002 7.06219 1C9.02902 0.999985 11.0918 1.87823 13.1101 3.71654C11.3201 5.51467 9.38362 6.37512 7.43693 6.37513C5.4701 6.37515 3.40733 5.4969 1.38905 3.65859ZM0.301013 3.69853L0.125977 3.54295C2.19522 1.21499 4.57234 1.92525e-05 7.06218 2.28506e-10C9.54584 -1.91925e-05 12.0408 1.20899 14.3532 3.52147L14.1981 3.6766L14.3731 3.83219C12.3039 6.16015 9.92678 7.37512 7.43694 7.37513C4.95327 7.37515 2.45832 6.16614 0.145877 3.85367L0.301013 3.69853Z"></path>
</svg>