<svg class="spin" width="25" height="15" viewBox="0 0 40 40" fill="none" xmlns="http://www.w3.org/2000/svg">
<path d="M33 20.5C33 22.9723 32.2669 25.389 30.8934 27.4446C29.5199 29.5002 27.5676 31.1024 25.2835 32.0485C22.9995 32.9946 20.4861 33.2421 18.0614 32.7598C15.6366 32.2775 13.4093 31.087 11.6612 29.3388C9.91301 27.5907 8.7225 25.3634 8.24018 22.9386C7.75787 20.5139 8.00541 18.0005 8.95151 15.7165C9.8976 13.4324 11.4998 11.4801 13.5554 10.1066C15.611 8.73311 18.0277 8 20.5 8L20.5 13C19.0166 13 17.5666 13.4399 16.3332 14.264C15.0999 15.0881 14.1386 16.2594 13.5709 17.6299C13.0032 19.0003 12.8547 20.5083 13.1441 21.9632C13.4335 23.418 14.1478 24.7544 15.1967 25.8033C16.2456 26.8522 17.582 27.5665 19.0368 27.8559C20.4917 28.1453 21.9997 27.9968 23.3701 27.4291C24.7406 26.8614 25.9119 25.9001 26.736 24.6668C27.5601 23.4334 28 21.9834 28 20.5H33Z" fill="white"/>
</svg>
